<?xml version="1.0" encoding="utf-8"?>
<!-- Generator: Adobe Illustrator 23.0.3, SVG Export Plug-In . SVG Version: 6.00 Build 0)  -->
<svg version="1.1" id="Layer_1" xmlns="http://www.w3.org/2000/svg" xmlns:xlink="http://www.w3.org/1999/xlink" x="0px" y="0px"
	 viewBox="0 0 675.63 195.24" style="enable-background:new 0 0 675.63 195.24;" xml:space="preserve">
<style type="text/css">
	.st0{fill:#00888B;stroke:#FFFFFF;stroke-width:8;stroke-miterlimit:10;}
	.st1{fill:#FFFFFF;}
	.st2{display:none;}
	.st3{display:inline;fill:#FFFFFF;}
	.st4{font-family:'Candara';}
	.st5{font-size:194.4913px;}
	.st6{display:inline;fill:#00888B;}
	.st7{font-family:'Candara-Bold';}
	.st8{fill:#00888B;}
</style>
<g>
	<path class="st0" d="M167.59,8.13c-34.44,0-62.36,27.44-62.36,61.3c0,33.86,62.36,116.67,62.36,116.67s62.36-82.81,62.36-116.67
		C229.95,35.57,202.03,8.13,167.59,8.13z"/>
	<circle class="st1" cx="167.18" cy="70.9" r="23.98"/>
	<path class="st1" d="M162.41,103.47l-5.81,47.5l-25.18-42.32c0,0,9.68-13.82,19.37-13.82c3.87,3.45,8.72,4.32,8.72,4.32
		L162.41,103.47z"/>
	<path class="st1" d="M172.1,103.47l5.81,47.5l25.18-42.32c0,0-9.68-13.82-19.37-13.82c-3.87,3.45-8.72,4.32-8.72,4.32L172.1,103.47
		z"/>
</g>
<text transform="matrix(1 0 0 1 -12.4728 157.156)" class="st2"><tspan x="0" y="0" class="st3 st4 st5">R   J</tspan><tspan x="325.07" y="0" class="st6 st7 st5">GAR</tspan></text>
<path id="R_1" class="st1" d="M82.63,116.24c-7-15-13-18-20-20c0-1,0-1,0-1c2.82-0.91,12.21-4.42,18.65-14.26
	c3.26-4.98,5.08-11.27,5.34-19.74c0.59-19-16-29-41-28.44c-19,0.44-33,0.52-40,0.44c1,7.07,3,65-0.58,124
	c3.58,0,17.58-0.04,17.58-0.04l-0.87-52.99c0,0,18.27-0.03,20.57,0s9.3,0.03,15.52,3.81c10.78,6.22,23.04,49.18,23.04,49.18h18.74
	C99.63,157.2,89.13,131.41,82.63,116.24z M57.63,87.24c-11,6-36,4-36,4v-44c6-2,27-3,36,1s12,10,12,19S68.63,81.24,57.63,87.24z"/>
<path id="R_2" class="st8" d="M652.3,116.39c-7.55-14.94-16.67-18.93-18.57-18.93c0-1,0-2,0-2c3.05-0.9,12.17-4.4,19.12-14.21
	c3.52-4.96,5.48-11.23,5.76-19.66c0-21.36-19.26-28.89-46.22-28.34c-20.49,0.44-35.59,0.51-43.14,0.44
	c1.08,7.05,3.24,64.76-0.62,123.54c4.86,0,13.86,0,27.96-0.04l-1.94-49.79c0,0,11.7-0.03,14.18,0c2.48,0.03,10.29,2.34,12.74,4.79
	c8.06,6.04,19.85,45,19.85,45h29.21C670.63,157.2,659.3,131.51,652.3,116.39z M622.34,87.5c-9.7,3.74-26.82,2.99-26.82,2.99
	l-1-38.84c6.47-1.99,24.53-0.6,28.82,1s10.59,6.27,10.94,14.93C634.63,76.24,632.04,83.76,622.34,87.5z"/>
<path id="J" class="st1" d="M278.63,33.24c5,0,21,0,18,0c-0.08,12.95-0.33,29.98-1,50c-0.43,12.74,0.82,18.39,0,28.86
	c-0.47,6.06-1.15,9.62-2,14.14c-1.08,5.7-1.82,7.84-2.33,9.15c0,0-2.29,4.96-5.67,9.85c-9,13-29,18-52,12c1-5,2-10,2-13
	c9,3,29,6,39-9c5-10,6.86-16.3,6-48C280.16,69.98,279.51,51.96,278.63,33.24z"/>
<path id="G" class="st8" d="M412.63,57.24c2-9,3-17,4-23c-33-6-51,0-62,5c-15,7-29,24-34,47c-4,19,2,49,26,64c23,13,47,11,77,3
	c0-7-2-46,1-58c-6,0-28,0-28,0s3,15,3,21s-1,15,1,23c-11,2-31,3-44-13c-6-7-11-21-10-36s9-25,16-31S389.63,50.24,412.63,57.24z"/>
<path id="A" class="st8" d="M517.63,44.24c-1.11-3.56-3-8-3-11c0,0-32,0-36,0c-1,14-44,117-44,124c2,0,27,0,29,0c0-9,9-36,9-36h43
	c0,0,9,30,9,36c3,0,29,0,31,0C554.63,147.24,536.63,103.24,517.63,44.24z M476.63,103.24c0,0,15-42,17-53h1c1,8,16,53,16,53H476.63z
	"/>
</svg>
